<mxfile host="app.diagrams.net" modified="2024-02-02T10:25:41.856Z" agent="Mozilla/5.0 (Windows NT 10.0; Win64; x64) AppleWebKit/537.36 (KHTML, like Gecko) Chrome/120.0.0.0 Whale/3.24.223.21 Safari/537.36" version="23.1.1" etag="nizTiYIGgZVV-j3__JfT" type="github">
  <diagram name="페이지-1" id="kl_KBXtchdSltE838BL8">
    <mxGraphModel>
      <root>
        <mxCell id="0" />
        <mxCell id="1" parent="0" />
      </root>
    </mxGraphModel>
  </diagram>
</mxfile>
